<svg xmlns="http://www.w3.org/2000/svg" width="14.4" height="16" viewBox="0 0 14.4 16">
  <path id="icons8-branching-arrows" d="M13.191,4a.6.6,0,0,0-.416.176l-2,2a.6.6,0,1,0,.848.849l.976-.976v6.9L8.048,8.4H9.4a.6.6,0,1,0,0-1.2H6.6a.6.6,0,0,0-.6.6v2.8a.6.6,0,1,0,1.2,0V9.248l5.4,5.4v1.475a1.907,1.907,0,0,0-.9.516,2.1,2.1,0,0,0,0,2.722,2.076,2.076,0,0,0,3,0,2.1,2.1,0,0,0,0-2.722,1.907,1.907,0,0,0-.9-.516V14.648l5.4-5.4V10.6a.6.6,0,1,0,1.2,0V7.8a.6.6,0,0,0-.6-.6H17a.6.6,0,1,0,0,1.2h1.352L13.8,12.951v-6.9l.976.976a.6.6,0,1,0,.848-.849l-2-2A.6.6,0,0,0,13.191,4ZM13.2,17.2a.72.72,0,0,1,.6.236.9.9,0,0,1,0,1.128.885.885,0,0,1-1.2,0,.9.9,0,0,1,0-1.128A.72.72,0,0,1,13.2,17.2Z" transform="translate(-6 -4)"/>
</svg>
