<svg xmlns="http://www.w3.org/2000/svg" width="18" height="16.371" viewBox="0 0 18 16.371">
  <path id="icons8-broken-link_1_" data-name="icons8-broken-link (1)" d="M7.933,3.982a.614.614,0,0,0-.48,1L9.089,7.032a.614.614,0,0,0,.959-.767L8.411,4.22A.614.614,0,0,0,7.933,3.982Zm6.116,0a.614.614,0,0,0-.46.237L11.952,6.265a.614.614,0,0,0,.959.767l1.636-2.045a.614.614,0,0,0-.5-1ZM6.091,8.08a4.091,4.091,0,1,0,0,8.182h2.25a.614.614,0,1,0,0-1.227H6.091a2.864,2.864,0,1,1,0-5.727h2.25a.614.614,0,1,0,0-1.227Zm7.568,0a.614.614,0,1,0,0,1.227h2.25a2.864,2.864,0,1,1,0,5.727h-2.25a.614.614,0,1,0,0,1.227h2.25a4.091,4.091,0,1,0,0-8.182Zm-1.226,8.993a.614.614,0,0,0-.48,1l1.636,2.045a.614.614,0,1,0,.959-.767l-1.636-2.045A.614.614,0,0,0,12.433,17.073Zm-2.884,0a.614.614,0,0,0-.46.236L7.452,19.356a.614.614,0,1,0,.959.767l1.636-2.045a.614.614,0,0,0-.5-1Z" transform="translate(-2 -3.982)"/>
</svg>
