<svg xmlns="http://www.w3.org/2000/svg" width="14" height="16" viewBox="0 0 14 16">
  <path id="icons8-alternative-path" d="M15.26,4.986a.639.639,0,0,0-.437.191l-1.7,1.684a.628.628,0,0,0,0,.893l1.7,1.684A.638.638,0,0,0,15.9,9.159a.628.628,0,0,0-.176-.615l-.611-.606h3.555A1.047,1.047,0,0,1,19.727,8.99V20.354a.636.636,0,0,0,1.273,0V8.99a2.334,2.334,0,0,0-2.333-2.315H15.112l.611-.606a.628.628,0,0,0,.142-.7A.637.637,0,0,0,15.26,4.986Zm-5.927.006a2.256,2.256,0,1,0,1.748.738A2.33,2.33,0,0,0,9.333,4.992Zm0,1.263a.972.972,0,0,1,.8.314,1.166,1.166,0,0,1,0,1.476.972.972,0,0,1-.8.314.972.972,0,0,1-.8-.314,1.166,1.166,0,0,1,0-1.476A.972.972,0,0,1,9.333,6.254Zm-.009,4.63a.639.639,0,0,0-.441.185l-1.7,1.684a.628.628,0,0,0,0,.893.64.64,0,0,0,.9,0L8.7,13.04v7.315a.636.636,0,0,0,1.273,0V13.04l.611.606a.638.638,0,0,0,1.076-.277.628.628,0,0,0-.176-.615l-1.7-1.684a.639.639,0,0,0-.459-.185Z" transform="translate(-7 -4.986)"/>
</svg>
