<svg xmlns="http://www.w3.org/2000/svg" width="96.386" height="32" viewBox="0 0 96.386 32">
  <g id="AINQA_Logo-01" transform="translate(-25.7 -18)">
    <path id="Path_2769" d="M41.829,18H41.7a16,16,0,1,0,.129,0Zm0,1.157c1.735,3.149,3.534,6.361,5.2,9.51l-.064.064a14.377,14.377,0,0,0-5.2-.964,14.633,14.633,0,0,0-5.2.964C38.294,25.518,39.965,22.369,41.829,19.157Zm7.261,13.43a19.538,19.538,0,0,0-5.719-1.671,14.29,14.29,0,0,0-6.169.643c-.835.257-1.671.643-2.506.964-.129.064-.193.064-.257.129l-.064-.064a17.139,17.139,0,0,1,1.414-2.313,15.019,15.019,0,0,1,12.337,0c.386.707.835,1.542,1.285,2.378C49.218,32.651,49.154,32.651,49.09,32.586Zm.9,1.735a.7.7,0,0,1,.321.257c.578.964,1.092,1.992,1.671,2.956a.236.236,0,0,1,.064.193A16.491,16.491,0,0,0,41.829,34a16,16,0,0,0-10.281,3.663c.064-.064.064-.129.193-.193.514-.9.964-1.8,1.478-2.7.064-.193.257-.257.386-.386A16.779,16.779,0,0,1,40.865,32.2,14.807,14.807,0,0,1,49.989,34.321Zm-20.948-8.1a15.835,15.835,0,0,1,6.1-5.526,14.073,14.073,0,0,1,5.333-1.478c-3.984,7.2-7.968,14.329-12.016,21.59A14.929,14.929,0,0,1,29.041,26.225Zm12.4,22.747a14.733,14.733,0,0,1-12.337-6.94,3.686,3.686,0,0,0,.257-.45A15.06,15.06,0,0,1,39,35.414,14.754,14.754,0,0,1,50.31,37.855a13.475,13.475,0,0,1,3.727,3.663l.193.257a.5.5,0,0,0,.064.193C51.21,46.53,46.969,49.036,41.443,48.972Zm1.671-29.687a15.285,15.285,0,0,1,5.012,1.349,14.931,14.931,0,0,1,6.361,5.783A14.645,14.645,0,0,1,55,40.683C51.082,33.55,47.1,26.418,43.114,19.285Z" transform="translate(0)" fill="#00205c"/>
    <path id="Path_2770" d="M145.054,42.9h-.707v-.129c.064-.064.129-.064.193-.129a4.075,4.075,0,0,0,1.221-1.542,6.469,6.469,0,0,0,.386-5.012,5.787,5.787,0,0,0-5.141-4.112,5.946,5.946,0,0,0-5.783,2.763,6.44,6.44,0,0,0-.643,5.719,5.25,5.25,0,0,0,3.149,3.341,8.029,8.029,0,0,0,2.7.514H146.4c.064,0,.193-.064.257-.064V42.709Zm-1.092-2.12a4.321,4.321,0,0,1-5.976,1.092,4.538,4.538,0,0,1,1.671-8.225c.257,0,.514-.064.707-.064a4.649,4.649,0,0,1,2.892,1.157,4.515,4.515,0,0,1,.964,5.59A3.684,3.684,0,0,1,143.962,40.782Z" transform="translate(-38.776 -4.982)" fill="#00205c"/>
    <path id="Path_87256" data-name="Path 87256" d="M124.681,44.445H124.3c-1.349-1.414-2.7-2.763-4.048-4.177s-2.7-2.763-4.048-4.177a.381.381,0,0,0-.064.45v7.9H114.4V32.3h.45c2.7,2.7,5.333,5.526,8.1,8.353.064-.45,0-.835.064-1.221V32.364h1.542C124.681,32.557,124.745,43.545,124.681,44.445Z" transform="translate(-31.704 -5.111)" fill="#00205c"/>
    <path id="Path_2772" d="M162.626,32.3h-.45c-1.992,4.048-3.984,8.032-5.976,12.145h1.992c.386-.771.707-1.542,1.092-2.249h6.361a24.276,24.276,0,0,0,1.092,2.249h1.992C166.674,40.332,164.682,36.284,162.626,32.3Zm-2.57,8.353c.835-1.735,1.671-3.406,2.378-5.141h.129c.771,1.735,1.606,3.406,2.378,5.141Z" transform="translate(-46.645 -5.111)" fill="#00205c"/>
    <path id="Path_2773" d="M89.79,32.3h-.514c-1.992,4.048-3.984,8.032-5.976,12.145h1.992c.386-.771.707-1.542,1.092-2.249h6.361c.386.771.707,1.542,1.092,2.249H95.83C93.774,40.4,91.782,36.348,89.79,32.3Zm-2.57,8.418h0v-.129c.771-1.671,1.542-3.213,2.249-4.819a.887.887,0,0,0,.193-.257c.771,1.735,1.606,3.47,2.313,5.141A37.977,37.977,0,0,1,87.22,40.718Z" transform="translate(-20.588 -5.111)" fill="#00205c"/>
    <path id="Path_2774" d="M108.171,44.509H106.5V32.3h1.671C108.235,32.557,108.235,43.995,108.171,44.509Z" transform="translate(-28.88 -5.111)" fill="#00205c"/>
  </g>
</svg>