<svg xmlns="http://www.w3.org/2000/svg" width="16.505" height="16.505" viewBox="0 0 16.505 16.505">
  <defs>
    <style>
      .cls-1 {
        fill: #0071f2;
      }
    </style>
  </defs>
  <path id="icons8-calendar" class="cls-1" d="M8.98,6A2.991,2.991,0,0,0,6,8.98V19.525A2.991,2.991,0,0,0,8.98,22.5H19.525a2.991,2.991,0,0,0,2.98-2.98V8.98A2.991,2.991,0,0,0,19.525,6Zm0,1.375H19.525a1.6,1.6,0,0,1,1.6,1.6v.688H7.375V8.98A1.6,1.6,0,0,1,8.98,7.375Zm-1.6,3.668H21.129v8.482a1.6,1.6,0,0,1-1.6,1.6H8.98a1.6,1.6,0,0,1-1.6-1.6Zm2.98,1.834A1.146,1.146,0,1,0,11.5,14.023a1.146,1.146,0,0,0-1.146-1.146Zm3.9,0A1.146,1.146,0,1,0,15.4,14.023,1.146,1.146,0,0,0,14.252,12.877Zm3.9,0A1.146,1.146,0,1,0,19.3,14.023,1.146,1.146,0,0,0,18.149,12.877ZM10.355,17A1.146,1.146,0,1,0,11.5,18.149,1.146,1.146,0,0,0,10.355,17Zm3.9,0A1.146,1.146,0,1,0,15.4,18.149,1.146,1.146,0,0,0,14.252,17Z" transform="translate(-6 -6)"/>
</svg>
