<svg xmlns="http://www.w3.org/2000/svg" width="15.664" height="14.286" viewBox="0 0 15.664 14.286">
  <defs>
    <style>
      .cls-1 {
        fill: #0071f2;
        stroke: #0071f2;
        stroke-width: 0.5px;
      }
    </style>
  </defs>
  <path id="icons8-consultation" class="cls-1" d="M7.514,4a3.446,3.446,0,1,0,2.068,6.2V8.683a2.412,2.412,0,1,1,0-2.473V5.551A2.225,2.225,0,0,1,9.715,4.8,3.43,3.43,0,0,0,7.514,4Zm4.308,0a1.559,1.559,0,0,0-1.551,1.551v4.825a.517.517,0,0,0,.8.43l1.938-1.292h2.6a1.559,1.559,0,0,0,1.551-1.551V5.551A1.559,1.559,0,0,0,15.613,4Zm0,1.034h3.791a.509.509,0,0,1,.517.517V7.963a.509.509,0,0,1-.517.517H12.856a.517.517,0,0,0-.287.087l-1.264.843V5.551A.509.509,0,0,1,11.822,5.034ZM3.551,12.271A1.553,1.553,0,0,0,2,13.822v.517c0,1.932,2.422,3.446,5.514,3.446s5.514-1.514,5.514-3.446v-.517a1.553,1.553,0,0,0-1.551-1.551Zm0,1.034h7.927a.518.518,0,0,1,.517.517v.517c0,1.308-2.052,2.412-4.48,2.412s-4.48-1.1-4.48-2.412v-.517A.518.518,0,0,1,3.551,13.305Z" transform="translate(-1.75 -3.75)"/>
</svg>
