<svg xmlns="http://www.w3.org/2000/svg" width="16" height="16" viewBox="0 0 16 16">
  <defs>
    <style>
      .cls-1 {
        fill: #0071f2;
      }
    </style>
  </defs>
  <path id="icons8-documents" class="cls-1" d="M5.8,5A1.851,1.851,0,0,0,4,6.895V19.105A1.851,1.851,0,0,0,5.8,21H7.528a2.774,2.774,0,0,1-.655-1.263H5.8a.617.617,0,0,1-.6-.632V6.895a.617.617,0,0,1,.6-.632H6.873A2.778,2.778,0,0,1,7.528,5ZM9.4,5A1.859,1.859,0,0,0,7.6,6.895V19.105A1.859,1.859,0,0,0,9.4,21h8.8A1.859,1.859,0,0,0,20,19.105V10.684a.649.649,0,0,0-.176-.447l-4.8-5.053A.585.585,0,0,0,14.6,5Zm0,1.263H14V9.421a1.859,1.859,0,0,0,1.8,1.895h3v7.789a.607.607,0,0,1-.6.632H9.4a.607.607,0,0,1-.6-.632V6.895A.607.607,0,0,1,9.4,6.263Zm5.8.893,2.752,2.9H15.8a.607.607,0,0,1-.6-.632Zm-3.8,6.265a.632.632,0,0,0,0,1.263h4.8a.632.632,0,0,0,0-1.263Zm0,2.947a.632.632,0,0,0,0,1.263H15a.632.632,0,0,0,0-1.263Z" transform="translate(-4 -5)"/>
</svg>
