<svg xmlns="http://www.w3.org/2000/svg" width="47.04" height="16" viewBox="0 0 47.04 16"><defs><style>.a{fill:#0071f2;}.b{fill:#ff4d4a;}</style></defs><g transform="translate(0)"><path class="a" d="M18.057,5.01a2.938,2.938,0,0,0-2.084.86L6.65,15.191a1.474,1.474,0,0,0-.375.638l-1.25,4.375a.632.632,0,0,0,.781.781l4.376-1.25h0a1.477,1.477,0,0,0,.637-.374l9.322-9.323A2.944,2.944,0,0,0,18.057,5.01Zm0,1.256a1.677,1.677,0,0,1,1.19.5h0a1.675,1.675,0,0,1,0,2.382l-.817.817L16.049,7.58l.817-.817A1.679,1.679,0,0,1,18.057,6.266Zm-2.9,2.207,2.382,2.382L9.926,18.468a.213.213,0,0,1-.091.053l-3.282.938.938-3.283h0a.206.206,0,0,1,.053-.09Z" transform="translate(-5.001 -5.01)"/><path class="b" d="M12.6,4A2.809,2.809,0,0,0,9.832,6.4H7.1a.539.539,0,0,0-.192,0H5.6a.6.6,0,1,0,0,1.2h.855L7.462,18.012A2.208,2.208,0,0,0,9.652,20h5.895a2.207,2.207,0,0,0,2.19-1.988L18.744,7.6H19.6a.6.6,0,1,0,0-1.2H18.3a.6.6,0,0,0-.192,0H15.368A2.809,2.809,0,0,0,12.6,4Zm0,1.2a1.585,1.585,0,0,1,1.545,1.2H11.055A1.585,1.585,0,0,1,12.6,5.2ZM7.66,7.6h9.879l-1,10.3a.992.992,0,0,1-1,.9H9.652a.993.993,0,0,1-1-.9Zm3.53,1.991a.6.6,0,0,0-.591.609v6a.6.6,0,1,0,1.2,0v-6a.6.6,0,0,0-.609-.609Zm2.8,0a.6.6,0,0,0-.591.609v6a.6.6,0,1,0,1.2,0v-6a.6.6,0,0,0-.609-.609Z" transform="translate(26.84 -4)"/></g></svg>