<svg xmlns="http://www.w3.org/2000/svg" width="15.2" height="15.2" viewBox="0 0 15.2 15.2">
  <defs>
    <style>
      .cls-1 {
        fill: #6f6f6f;
      }
    </style>
  </defs>
  <path id="Icon_-_APPOINTMENT_DURATION" data-name="Icon - APPOINTMENT DURATION" class="cls-1" d="M4.448,3A1.447,1.447,0,0,0,3,4.448V14.581a1.447,1.447,0,0,0,1.448,1.448H8.492a5.726,5.726,0,0,1-.376-1.448H4.448V7.343H14.581v.773a5.726,5.726,0,0,1,1.448.376V4.448A1.447,1.447,0,0,0,14.581,3Zm0,1.448H14.581V5.9H4.448ZM5.9,8.791v1.448H7.343V8.791Zm2.9,0v1.448h.55a5.812,5.812,0,0,1,1.716-1.448Zm5.067.724A4.343,4.343,0,1,0,18.2,13.857,4.356,4.356,0,0,0,13.857,9.514Zm0,1.448a2.9,2.9,0,1,1-2.9,2.9A2.9,2.9,0,0,1,13.857,10.962ZM5.9,11.686v1.448H7.343V11.686Zm8.272.085-1.158,2.187,1.518,1.518.768-.768-.951-.951.783-1.479Z" transform="translate(-3 -3)"/>
</svg>
