<svg xmlns="http://www.w3.org/2000/svg" width="12.175" height="14.458" viewBox="0 0 12.175 14.458">
  <defs>
    <style>
      .cls-1 {
        fill: #0071f2;
      }
    </style>
  </defs>
  <path id="Icon_-_View_holidays_for_entities" data-name="Icon - View holidays for entities" class="cls-1" d="M15.509,5a1.341,1.341,0,0,0-.288.012L8.486,6.025A.57.57,0,0,0,8,6.589V17.868a.57.57,0,0,0,.486.564l6.735,1.011a1.319,1.319,0,0,0,1.508-1.127h2.113a1.341,1.341,0,0,0,1.332-1.332V7.473a1.341,1.341,0,0,0-1.332-1.332H16.73A1.319,1.319,0,0,0,15.509,5Zm1.242,2.28h2.093a.182.182,0,0,1,.19.19v9.512a.182.182,0,0,1-.19.19H16.751Zm-2.663,4.566a.761.761,0,1,1-.761.761A.761.761,0,0,1,14.087,11.848Z" transform="translate(-8 -5)"/>
</svg>
