<svg xmlns="http://www.w3.org/2000/svg" width="21" height="14" viewBox="0 0 21 14">
  <defs>
    <style>
      .cls-1 {
        fill: #6f6f6f;
      }
    </style>
  </defs>
  <path id="Icon_-_RESOURCE_INFORMATION" data-name="Icon - RESOURCE INFORMATION" class="cls-1" d="M10.5,4a3.063,3.063,0,1,0,3.063,3.063A3.062,3.062,0,0,0,10.5,4Zm0,1.75A1.313,1.313,0,1,1,9.188,7.063,1.314,1.314,0,0,1,10.5,5.75Zm-6.562.875A2.188,2.188,0,1,0,6.125,8.813,2.187,2.187,0,0,0,3.938,6.625Zm13.125,0A2.188,2.188,0,1,0,19.25,8.813,2.187,2.187,0,0,0,17.063,6.625ZM3.938,8.132a.68.68,0,1,1-.68.68A.681.681,0,0,1,3.938,8.132Zm13.125,0a.68.68,0,1,1-.68.68A.68.68,0,0,1,17.063,8.132ZM10.5,11.875A10.638,10.638,0,0,0,5.735,13.1a5.111,5.111,0,0,0-1.8-.349C1.98,12.75,0,13.973,0,15.315V18H21V15.315c0-1.342-1.98-2.565-3.937-2.565a5.111,5.111,0,0,0-1.8.349A10.638,10.638,0,0,0,10.5,11.875Zm0,1.75c1.867,0,4.044.841,4.375,1.371V16.25H6.125V15C6.456,14.466,8.633,13.625,10.5,13.625ZM3.938,14.5a3.065,3.065,0,0,1,.489.055,1.5,1.5,0,0,0-.051.383V16.25H1.75v-.866A2.9,2.9,0,0,1,3.938,14.5Zm13.125,0a2.9,2.9,0,0,1,2.188.884v.866H16.625V14.938a1.5,1.5,0,0,0-.051-.383A3.065,3.065,0,0,1,17.063,14.5Z" transform="translate(0 -4)"/>
</svg>
