<svg xmlns="http://www.w3.org/2000/svg" width="18" height="10.5" viewBox="0 0 18 10.5"><defs><style>.a{fill:#6f6f6f;}</style></defs><path class="a" d="M3.75,5A2.25,2.25,0,1,0,6,7.25,2.261,2.261,0,0,0,3.75,5ZM9,5a2.25,2.25,0,1,0,2.25,2.25A2.261,2.261,0,0,0,9,5Zm5.25,0A2.25,2.25,0,1,0,16.5,7.25,2.261,2.261,0,0,0,14.25,5ZM3.75,6.5A.75.75,0,1,1,3,7.25.739.739,0,0,1,3.75,6.5ZM9,6.5a.75.75,0,1,1-.75.75A.739.739,0,0,1,9,6.5Zm5.25,0a.75.75,0,1,1-.75.75A.739.739,0,0,1,14.25,6.5ZM4.5,11a7.556,7.556,0,0,0-2.94.524,3.119,3.119,0,0,0-1.056.7A1.759,1.759,0,0,0,0,13.413V15.5H18V13.413a1.759,1.759,0,0,0-.5-1.189,3.119,3.119,0,0,0-1.056-.7A7.556,7.556,0,0,0,13.5,11a8.4,8.4,0,0,0-2.238.287A8.371,8.371,0,0,0,9,11a8.372,8.372,0,0,0-2.262.287A8.4,8.4,0,0,0,4.5,11Zm0,1.5c.1,0,.188.005.283.009a1.671,1.671,0,0,0-.283.9V14h-3v-.587c0-.028,0-.058.092-.157a1.783,1.783,0,0,1,.561-.353A6.3,6.3,0,0,1,4.5,12.5Zm4.5,0a6.3,6.3,0,0,1,2.347.4,1.783,1.783,0,0,1,.561.353c.094.1.092.128.092.157V14H6v-.587c0-.028,0-.058.092-.157a1.783,1.783,0,0,1,.561-.353A6.3,6.3,0,0,1,9,12.5Zm4.5,0a6.3,6.3,0,0,1,2.347.4,1.783,1.783,0,0,1,.561.353c.094.1.092.128.092.157V14h-3v-.587a1.671,1.671,0,0,0-.283-.9C13.312,12.505,13.4,12.5,13.5,12.5Z" transform="translate(0 -5)"/></svg>