<svg xmlns="http://www.w3.org/2000/svg" width="15.2" height="16" viewBox="0 0 15.2 16"><defs><style>.a{fill:#ff4d4a;}</style></defs><path class="a" d="M12.6,4A2.809,2.809,0,0,0,9.832,6.4H7.1a.539.539,0,0,0-.192,0H5.6a.6.6,0,1,0,0,1.2h.855L7.462,18.012A2.208,2.208,0,0,0,9.652,20h5.895a2.207,2.207,0,0,0,2.19-1.988L18.744,7.6H19.6a.6.6,0,1,0,0-1.2H18.3a.6.6,0,0,0-.192,0H15.368A2.809,2.809,0,0,0,12.6,4Zm0,1.2a1.585,1.585,0,0,1,1.545,1.2H11.055A1.585,1.585,0,0,1,12.6,5.2ZM7.66,7.6h9.879l-1,10.3a.992.992,0,0,1-1,.9H9.652a.993.993,0,0,1-1-.9Zm3.53,1.991a.6.6,0,0,0-.591.609v6a.6.6,0,1,0,1.2,0v-6a.6.6,0,0,0-.609-.609Zm2.8,0a.6.6,0,0,0-.591.609v6a.6.6,0,1,0,1.2,0v-6a.6.6,0,0,0-.609-.609Z" transform="translate(-5 -4)"/></svg>