<svg xmlns="http://www.w3.org/2000/svg" width="16" height="16" viewBox="0 0 16 16">
  <defs>
    <style>
      .cls-1 {
        fill: #b6b6b6;
      }
    </style>
  </defs>
  <path id="icons_-_calendar" data-name="icons - calendar" class="cls-1" d="M8.889,6A2.9,2.9,0,0,0,6,8.889V19.111A2.9,2.9,0,0,0,8.889,22H19.111A2.9,2.9,0,0,0,22,19.111V8.889A2.9,2.9,0,0,0,19.111,6Zm0,1.333H19.111a1.546,1.546,0,0,1,1.556,1.556v.667H7.333V8.889A1.546,1.546,0,0,1,8.889,7.333ZM7.333,10.889H20.667v8.222a1.546,1.546,0,0,1-1.556,1.556H8.889a1.546,1.546,0,0,1-1.556-1.556Zm2.889,1.778a1.111,1.111,0,1,0,1.111,1.111,1.111,1.111,0,0,0-1.111-1.111Zm3.778,0a1.111,1.111,0,1,0,1.111,1.111A1.111,1.111,0,0,0,14,12.667Zm3.778,0a1.111,1.111,0,1,0,1.111,1.111A1.111,1.111,0,0,0,17.778,12.667Zm-7.556,4a1.111,1.111,0,1,0,1.111,1.111A1.111,1.111,0,0,0,10.222,16.667Zm3.778,0a1.111,1.111,0,1,0,1.111,1.111A1.111,1.111,0,0,0,14,16.667Z" transform="translate(-6 -6)"/>
</svg>
