<svg xmlns="http://www.w3.org/2000/svg" width="16" height="14.4" viewBox="0 0 16 14.4">
  <defs>
    <style>
      .cls-1 {
        fill: #6f6f6f;
      }
    </style>
  </defs>
  <path id="Icon_-_SCHEDULE_Period" data-name="Icon - SCHEDULE Period" class="cls-1" d="M3.6,3A1.612,1.612,0,0,0,2,4.6v4a1.612,1.612,0,0,0,1.6,1.6H8.4A1.612,1.612,0,0,0,10,8.6v-4A1.612,1.612,0,0,0,8.4,3ZM14.8,3a1.6,1.6,0,1,0,1.6,1.6A1.6,1.6,0,0,0,14.8,3ZM3.6,4.6H5.2v.8H6.8V4.6H8.4v4H3.6ZM14.8,7.8c-1.748,0-3.2.727-3.2,1.773V10.2H18V9.573C18,8.527,16.548,7.8,14.8,7.8Zm0,4-2.4,2.4H14v1.6H6.8V12.6H5.2v3.2a1.612,1.612,0,0,0,1.6,1.6H14a1.612,1.612,0,0,0,1.6-1.6V14.2h1.6Z" transform="translate(-2 -3)"/>
</svg>
