<svg xmlns="http://www.w3.org/2000/svg" width="15.818" height="16" viewBox="0 0 15.818 16"><defs><style>.a{fill:#6f6f6f;}</style></defs><path class="a" d="M7.773,2a3.636,3.636,0,1,0,3.636,3.636A3.645,3.645,0,0,0,7.773,2Zm0,1.091A2.545,2.545,0,1,1,5.227,5.636,2.537,2.537,0,0,1,7.773,3.091ZM14.318,10a4,4,0,1,0,4,4A4,4,0,0,0,14.318,10Zm-10.464.727A1.4,1.4,0,0,0,2.5,12.174v.553a3.378,3.378,0,0,0,1.737,2.919,6.835,6.835,0,0,0,3.536.9,7.7,7.7,0,0,0,2.356-.36,4.7,4.7,0,0,1-.387-1.021,6.653,6.653,0,0,1-1.969.29c-2.014,0-4.182-.853-4.182-2.727v-.553c0-.193.121-.356.263-.356h6.273a4.734,4.734,0,0,1,.785-1.091Zm10.464.364a.364.364,0,0,1,.364.364v2.182h2.182a.364.364,0,0,1,0,.727H14.682v2.182a.364.364,0,0,1-.727,0V14.364H11.773a.364.364,0,0,1,0-.727h2.182V11.455A.364.364,0,0,1,14.318,11.091Z" transform="translate(-2.5 -2)"/></svg>