<svg xmlns="http://www.w3.org/2000/svg" width="17.9" height="14.917" viewBox="0 0 17.9 14.917"><defs><style>.a{fill:#6f6f6f;}</style></defs><path class="a" d="M13.473,0a.189.189,0,0,0-.188.168L13.2.922a2.964,2.964,0,0,0-.97.561l-.7-.3a.188.188,0,0,0-.237.08l-.7,1.209a.19.19,0,0,0,.051.246l.6.447a2.853,2.853,0,0,0,0,1.133l-.6.447a.189.189,0,0,0-.051.246l.7,1.209a.187.187,0,0,0,.237.079l.7-.3a2.951,2.951,0,0,0,.97.561l.087.755a.189.189,0,0,0,.188.168h1.4a.189.189,0,0,0,.188-.168l.087-.755a2.964,2.964,0,0,0,.97-.561l.7.3a.188.188,0,0,0,.237-.08l.7-1.209a.189.189,0,0,0-.051-.246L17.1,4.3a2.853,2.853,0,0,0,0-1.133l.6-.447a.189.189,0,0,0,.051-.246l-.7-1.209a.188.188,0,0,0-.237-.08l-.7.3a2.964,2.964,0,0,0-.97-.561L15.057.168A.189.189,0,0,0,14.869,0Zm.7,2.238a1.492,1.492,0,1,1-1.492,1.492A1.492,1.492,0,0,1,14.171,2.238ZM2.983,2.983A1.493,1.493,0,0,0,1.492,4.475v7.458a1.493,1.493,0,0,0,1.492,1.492H0v1.492H17.9V13.425H14.917a1.493,1.493,0,0,0,1.492-1.492V8.44a5.163,5.163,0,0,1-1.49.45v3.043H2.983V4.475H9.01a5.231,5.231,0,0,1-.06-.746,5.231,5.231,0,0,1,.06-.746Z"/></svg>