<svg xmlns="http://www.w3.org/2000/svg" width="12.797" height="15.997" viewBox="0 0 12.797 15.997"><defs><style>.a{fill:#6f6f6f;}</style></defs><path class="a" d="M9.8,4A1.809,1.809,0,0,0,8,5.8V18.2A1.809,1.809,0,0,0,9.8,20H19a1.809,1.809,0,0,0,1.8-1.8V9.8a.6.6,0,0,0-.176-.424l-.006-.006L15.423,4.176A.6.6,0,0,0,15,4Zm0,1.2h4.6V8.6a1.809,1.809,0,0,0,1.8,1.8h3.4v7.8a.591.591,0,0,1-.6.6H9.8a.591.591,0,0,1-.6-.6V5.8A.591.591,0,0,1,9.8,5.2Zm5.8.848L18.749,9.2H16.2a.591.591,0,0,1-.6-.6Z" transform="translate(-8 -4)"/></svg>