<svg xmlns="http://www.w3.org/2000/svg" width="12" height="12" viewBox="0 0 12 12">
  <defs>
    <style>
      .cls-1 {
        fill: #0071f2;
      }
    </style>
  </defs>
  <path id="Entity_Name" data-name="Entity Name" class="cls-1" d="M8,2A1.543,1.543,0,0,0,6.428,3.5v.682H4.571A1.543,1.543,0,0,0,3,5.682V12.5A1.543,1.543,0,0,0,4.571,14H8a.419.419,0,0,0,.428-.409V11.545H9.571v2.045a.4.4,0,0,0,.126.289A.439.439,0,0,0,10,14h3.429A1.543,1.543,0,0,0,15,12.5V5.682a1.543,1.543,0,0,0-1.571-1.5H11.571V3.5A1.543,1.543,0,0,0,10,2Zm0,.818h2a.726.726,0,0,1,.507.2.66.66,0,0,1,.207.484V5.409a.66.66,0,0,1-.207.484.726.726,0,0,1-.507.2H8a.726.726,0,0,1-.507-.2.66.66,0,0,1-.207-.484V3.5a.66.66,0,0,1,.207-.484A.726.726,0,0,1,8,2.818Zm.993.54a.418.418,0,0,0-.422.415v.273H8.286a.41.41,0,1,0,0,.818h.286v.273a.429.429,0,0,0,.857,0V4.864h.286a.41.41,0,1,0,0-.818H9.429V3.773a.4.4,0,0,0-.126-.3A.439.439,0,0,0,8.993,3.358ZM4.571,5H6.429v.409A1.543,1.543,0,0,0,8,6.909h2a1.543,1.543,0,0,0,1.572-1.5V5h1.857a.726.726,0,0,1,.507.2.66.66,0,0,1,.207.484V12.5a.66.66,0,0,1-.207.484.726.726,0,0,1-.507.2h-3V11.409a.7.7,0,0,0-.714-.682H8.286a.7.7,0,0,0-.714.682v1.773h-3a.726.726,0,0,1-.507-.2.66.66,0,0,1-.207-.484V5.682A.66.66,0,0,1,4.065,5.2.726.726,0,0,1,4.571,5Zm.714,2.455A.279.279,0,0,0,5,7.727v.546a.279.279,0,0,0,.286.273h.571a.279.279,0,0,0,.286-.273V7.727a.279.279,0,0,0-.286-.273Zm2.286,0a.279.279,0,0,0-.286.273v.546a.279.279,0,0,0,.286.273h.572a.279.279,0,0,0,.286-.273V7.727a.279.279,0,0,0-.286-.273Zm2.286,0a.279.279,0,0,0-.286.273v.546a.279.279,0,0,0,.286.273h.572a.279.279,0,0,0,.286-.273V7.727a.279.279,0,0,0-.286-.273Zm2.286,0a.279.279,0,0,0-.286.273v.546a.279.279,0,0,0,.286.273h.571A.279.279,0,0,0,13,8.273V7.727a.279.279,0,0,0-.286-.273ZM5.286,9.091A.279.279,0,0,0,5,9.364v.546a.279.279,0,0,0,.286.273h.571a.279.279,0,0,0,.286-.273V9.364a.279.279,0,0,0-.286-.273Zm2.286,0a.279.279,0,0,0-.286.273v.546a.279.279,0,0,0,.286.273h.571a.279.279,0,0,0,.286-.273V9.364a.279.279,0,0,0-.286-.273Zm2.286,0a.279.279,0,0,0-.286.273v.546a.279.279,0,0,0,.286.273h.571a.279.279,0,0,0,.286-.273V9.364a.279.279,0,0,0-.286-.273Zm2.286,0a.279.279,0,0,0-.286.273v.546a.279.279,0,0,0,.286.273h.571A.279.279,0,0,0,13,9.909V9.364a.279.279,0,0,0-.286-.273ZM5.286,10.727A.279.279,0,0,0,5,11v.546a.279.279,0,0,0,.286.273h.571a.279.279,0,0,0,.286-.273V11a.279.279,0,0,0-.286-.273Zm6.857,0a.279.279,0,0,0-.286.273v.546a.279.279,0,0,0,.286.273h.571A.279.279,0,0,0,13,11.545V11a.279.279,0,0,0-.286-.273Z" transform="translate(-3 -2)"/>
</svg>
