<svg xmlns="http://www.w3.org/2000/svg" width="12.5" height="12.5" viewBox="0 0 12.5 12.5">
  <defs>
    <style>
      .cls-1 {
        fill: #0071f2;
        stroke: #0071f2;
        stroke-width: 0.5px;
      }
    </style>
  </defs>
  <path id="Parent_Entity" data-name="Parent Entity" class="cls-1" d="M5.3,2a.283.283,0,0,0-.3.261V4.87a.283.283,0,0,0,.3.261H7.4V7.956a.227.227,0,0,0,0,.085v4.394a.283.283,0,0,0,.3.261h3.9v1.043a.283.283,0,0,0,.3.261h4.8a.283.283,0,0,0,.3-.261V11.13a.283.283,0,0,0-.3-.261H11.9a.283.283,0,0,0-.3.261v1.044H8V8.261h3.6V9.3a.283.283,0,0,0,.3.261h4.8A.283.283,0,0,0,17,9.3V6.7a.283.283,0,0,0-.3-.261H11.9a.283.283,0,0,0-.3.261V7.739H8V5.13h2.1a.283.283,0,0,0,.3-.261V2.261A.283.283,0,0,0,10.1,2Zm.3.522H9.8V4.609H7.746a.344.344,0,0,0-.051,0l-.043,0H5.6Zm6.6,4.435h4.2V9.043H12.2v-1a.227.227,0,0,0,0-.085Zm0,4.435h4.2v2.087H12.2v-1a.227.227,0,0,0,0-.085Z" transform="translate(-4.75 -1.75)"/>
</svg>
