<svg xmlns="http://www.w3.org/2000/svg" width="12" height="12" viewBox="0 0 12 12">
  <defs>
    <style>
      .cls-1 {
        fill: #0071f2;
      }
    </style>
  </defs>
  <path id="Phone_" data-name="Phone " class="cls-1" d="M4.334,2A1.242,1.242,0,0,0,3,3.091v7.635a1.242,1.242,0,0,0,1.334,1.091v.273A2.167,2.167,0,0,0,6.667,14,2.167,2.167,0,0,0,9,12.09v-.273h4.666A1.232,1.232,0,0,0,15,10.726V3.091A1.232,1.232,0,0,0,13.666,2H7a1.551,1.551,0,0,0-.669.15A1.534,1.534,0,0,0,5.667,2Zm0,1.091H5.667v7.635H4.334ZM7,3.091h6.667v7.635H7Zm1.333,1.09V5.272h4V4.181Zm0,2.181V7.454H9.667V6.363Zm2.667,0V7.454h1.334V6.363ZM8.333,8.544V9.635H9.667V8.544Zm2.667,0V9.635h1.334V8.544Zm-4.669,3.12a1.551,1.551,0,0,0,.669.15h.667v.273a.8.8,0,0,1-.3.593,1.042,1.042,0,0,1-.7.225,1.042,1.042,0,0,1-.7-.225.8.8,0,0,1-.3-.593v-.273A1.534,1.534,0,0,0,6.331,11.665Z" transform="translate(-3 -1.999)"/>
</svg>
