<svg xmlns="http://www.w3.org/2000/svg" width="24" height="25.263" viewBox="0 0 24 25.263">
  <g id="icons8-country" transform="translate(-2 -2)">
    <path id="Path_93296" data-name="Path 93296" d="M18.421,3h5.053A2.54,2.54,0,0,1,26,5.554v4.957a6.1,6.1,0,0,1-.632,2.7h0a6.1,6.1,0,0,0-.632,2.7v7.385a3.426,3.426,0,0,1-2.573,3.33l-2.48.627H18.109a5.8,5.8,0,0,1-1.854-.3l-.822-.277a5.8,5.8,0,0,0-4.077.139h0a5.824,5.824,0,0,1-2.223.442H6.3a4.27,4.27,0,0,1-3.04-1.277l-.006-.006A4.385,4.385,0,0,1,2,22.9V18.475a6.1,6.1,0,0,1,.632-2.7h0a6.1,6.1,0,0,0,.632-2.7V9.385A2.54,2.54,0,0,1,5.789,6.831h5.053l3.789-2.554Z" fill="#0061fb" opacity="0.35"/>
    <circle id="Ellipse_129153" data-name="Ellipse 129153" cx="1.5" cy="1.5" r="1.5" transform="translate(7.25 19.025)" fill="#0061fb"/>
    <path id="Path_93297" data-name="Path 93297" d="M12,2A5,5,0,0,0,7,7c0,1.977,2,4.7,3.471,6.441a2.005,2.005,0,0,0,3.058,0C15,11.7,17,8.977,17,7A5,5,0,0,0,12,2Zm0,7.143A2.143,2.143,0,1,1,14.143,7,2.143,2.143,0,0,1,12,9.143Z" transform="translate(2.778)" fill="#0061fb"/>
  </g>
</svg>
